<svg xmlns="http://www.w3.org/2000/svg" width="460" height="530" viewBox="0 0 460 530">
  <title>LAWB — the glyph made flesh: {°·°} peeking over your terminal</title>
  <rect width="460" height="530" fill="#000000"/>

  <g fill="none" stroke="#ffffff" stroke-width="3" stroke-linecap="round" stroke-linejoin="round">
    <path d="M210,120 C198,92 176,66 140,52"/>
    <path d="M250,120 C262,92 284,66 320,52"/>
    <path d="M140,52 C132,48 126,50 122,56"/>
    <path d="M320,52 C328,48 334,50 338,56"/>

    <line x1="213" y1="162" x2="210" y2="150"/>
    <line x1="247" y1="162" x2="250" y2="150"/>
    <circle cx="209" cy="141" r="9"/>
    <circle cx="251" cy="141" r="9"/>

    <path d="M188,196 C190,152 270,152 272,196"/>
  </g>
  <circle cx="230" cy="174" r="3" fill="#ffffff"/>

  <g fill="none" stroke="#ffffff" stroke-width="3.5" stroke-linecap="round" stroke-linejoin="round">
    <path d="M162,192 C168,176 160,158 142,154 C124,150 110,162 112,178 C113,188 120,195 128,196"/>
    <path d="M128,196 C130,206 138,213 148,211 C156,209 161,202 162,196"/>
    <path d="M298,192 C292,176 300,158 318,154 C336,150 350,162 348,178 C347,188 340,195 332,196"/>
    <path d="M332,196 C330,206 322,213 312,211 C304,209 299,202 298,196"/>
  </g>

  <g stroke="#2e2e2e" stroke-width="1">
    <line x1="72" y1="212" x2="388" y2="212"/>
    <line x1="72" y1="224" x2="388" y2="224"/>
    <line x1="72" y1="236" x2="388" y2="236"/>
    <line x1="72" y1="248" x2="388" y2="248"/>
    <line x1="72" y1="260" x2="388" y2="260"/>
    <line x1="72" y1="272" x2="388" y2="272"/>
    <line x1="72" y1="284" x2="388" y2="284"/>
    <line x1="72" y1="296" x2="388" y2="296"/>
    <line x1="72" y1="308" x2="388" y2="308"/>
    <line x1="72" y1="320" x2="388" y2="320"/>
    <line x1="72" y1="332" x2="388" y2="332"/>
    <line x1="72" y1="344" x2="388" y2="344"/>
    <line x1="72" y1="356" x2="388" y2="356"/>
    <line x1="72" y1="368" x2="388" y2="368"/>
    <line x1="72" y1="380" x2="388" y2="380"/>
    <line x1="72" y1="392" x2="388" y2="392"/>
    <line x1="72" y1="404" x2="388" y2="404"/>
    <line x1="72" y1="416" x2="388" y2="416"/>
  </g>

  <g fill="none" stroke="#ffffff" stroke-width="2.5" stroke-linecap="round">
    <path d="M70,196 L70,418 Q70,428 80,428 L380,428 Q390,428 390,418 L390,196"/>
    <line x1="70" y1="196" x2="106" y2="196"/>
    <line x1="166" y1="196" x2="186" y2="196"/>
    <line x1="274" y1="196" x2="294" y2="196"/>
    <line x1="354" y1="196" x2="390" y2="196"/>
  </g>

  <text x="90" y="252" font-family="ui-monospace,Menlo,Consolas,monospace" font-size="14" fill="#ffffff">$ git clone lawb</text>
  <text x="90" y="278" font-family="ui-monospace,Menlo,Consolas,monospace" font-size="14" fill="#888888">&gt; born in the shell.</text>
  <text x="90" y="330" font-family="ui-monospace,Menlo,Consolas,monospace" font-size="14" fill="#ffffff">$ who is watching me</text>
  <text x="90" y="356" font-family="ui-monospace,Menlo,Consolas,monospace" font-size="14" fill="#888888">lawb    tty1    always</text>
  <text x="90" y="398" font-family="ui-monospace,Menlo,Consolas,monospace" font-size="14" fill="#ffffff">$</text>
  <rect x="106" y="386" width="10" height="16" fill="#ffffff"/>

  <text x="230" y="478" text-anchor="middle" font-family="ui-monospace,Menlo,Consolas,monospace" font-size="40" fill="#ffffff">LAWB {°·°}</text>
  <text x="230" y="504" text-anchor="middle" font-family="ui-monospace,Menlo,Consolas,monospace" font-size="12.5" fill="#888888">the gitlawb official meme · born in the shell · CC0</text>
</svg>
